HIERARCHY
ROOT hip
{
  OFFSET 0 0 0
  CHANNELS 6 Xposition Yposition Zposition Zrotation Yrotation Xrotation
  JOINT abdomen
  {
    OFFSET 0 20.6881 -0.73152
    CHANNELS 3 Zrotation Xrotation Yrotation
    JOINT chest
    {
      OFFSET 0 11.7043 -0.48768
      CHANNELS 3 Zrotation Xrotation Yrotation
      JOINT neck
      {
        OFFSET 0 22.1894 -2.19456
        CHANNELS 3 Zrotation Xrotation Yrotation
        JOINT head
        {
          OFFSET -0.24384 7.07133 1.2192
          CHANNELS 3 Zrotation Xrotation Yrotation
          JOINT leftEye
          {
            OFFSET 4.14528 8.04674 8.04672
            CHANNELS 3 Zrotation Xrotation Yrotation
            End Site
            {
              OFFSET 1 0 0
            }
          }
          JOINT rightEye
          {
            OFFSET -3.6576 8.04674 8.04672
            CHANNELS 3 Zrotation Xrotation Yrotation
            End Site
            {
              OFFSET 1 0 0
            }
          }
        }
      }
      JOINT rCollar
      {
        OFFSET -2.68224 19.2634 -4.8768
        CHANNELS 3 Zrotation Xrotation Yrotation
        JOINT rShldr
        {
          OFFSET -8.77824 -1.95073 1.46304
          CHANNELS 3 Zrotation Xrotation Yrotation
          JOINT rForeArm
          {
            OFFSET -28.1742 -1.7115 0.48768
            CHANNELS 3 Zrotation Xrotation Yrotation
            JOINT rHand
            {
              OFFSET -22.5879 0.773209 7.07136
              CHANNELS 3 Zrotation Xrotation Yrotation
              JOINT rThumb1
              {
                OFFSET -1.2192 -0.487915 3.41376
                CHANNELS 3 Zrotation Xrotation Yrotation
                JOINT rThumb2
                {
                  OFFSET -3.37035 -0.52449 3.41376
                  CHANNELS 3 Zrotation Xrotation Yrotation
                  End Site
                  {
                    OFFSET -1.78271 -1.18214 1.43049
                  }
                }
              }
              JOINT rIndex1
              {
                OFFSET -7.75947 0.938293 5.60832
                CHANNELS 3 Zrotation Xrotation Yrotation
                JOINT rIndex2
                {
                  OFFSET -2.54057 -0.884171 1.56538
                  CHANNELS 3 Zrotation Xrotation Yrotation
                  End Site
                  {
                    OFFSET -1.62519 -0.234802 1.16502
                  }
                }
              }
              JOINT rMid1
              {
                OFFSET -8.24714 1.18213 3.41376
                CHANNELS 3 Zrotation Xrotation Yrotation
                JOINT rMid2
                {
                  OFFSET -3.10165 -0.590103 1.0647
                  CHANNELS 3 Zrotation Xrotation Yrotation
                  End Site
                  {
                    OFFSET -2.48547 -0.328903 0.83742
                  }
                }
              }
              JOINT rRing1
              {
                OFFSET -8.82822 0.546677 1.51678
                CHANNELS 3 Zrotation Xrotation Yrotation
                JOINT rRing2
                {
                  OFFSET -2.60934 -0.819778 -0.0198488
                  CHANNELS 3 Zrotation Xrotation Yrotation
                  End Site
                  {
                    OFFSET -2.33842 -0.294052 0.168128
                  }
                }
              }
              JOINT rPinky1
              {
                OFFSET -8.27202 -0.0477905 -0.4584
                CHANNELS 3 Zrotation Xrotation Yrotation
                JOINT rPinky2
                {
                  OFFSET -1.82734 -0.647385 -0.700984
                  CHANNELS 3 Zrotation Xrotation Yrotation
                  End Site
                  {
                    OFFSET -1.69225 -0.51767 -0.607171
                  }
                }
              }
            }
          }
        }
      }
      JOINT lCollar
      {
        OFFSET 2.68224 19.2634 -4.8768
        CHANNELS 3 Zrotation Xrotation Yrotation
        JOINT lShldr
        {
          OFFSET 8.77824 -1.95073 1.46304
          CHANNELS 3 Zrotation Xrotation Yrotation
          JOINT lForeArm
          {
            OFFSET 28.1742 -1.7115 0.48768
            CHANNELS 3 Zrotation Xrotation Yrotation
            JOINT lHand
            {
              OFFSET 22.5879 0.773209 7.07136
              CHANNELS 3 Zrotation Xrotation Yrotation
              JOINT lThumb1
              {
                OFFSET 1.2192 -0.487915 3.41376
                CHANNELS 3 Zrotation Xrotation Yrotation
                JOINT lThumb2
                {
                  OFFSET 3.37035 -0.52449 3.41376
                  CHANNELS 3 Zrotation Xrotation Yrotation
                  End Site
                  {
                    OFFSET 1.78271 -1.18214 1.43049
                  }
                }
              }
              JOINT lIndex1
              {
                OFFSET 7.75947 0.938293 5.60832
                CHANNELS 3 Zrotation Xrotation Yrotation
                JOINT lIndex2
                {
                  OFFSET 2.54057 -0.884171 1.56538
                  CHANNELS 3 Zrotation Xrotation Yrotation
                  End Site
                  {
                    OFFSET 1.62519 -0.234802 1.16502
                  }
                }
              }
              JOINT lMid1
              {
                OFFSET 8.24714 1.18213 3.41376
                CHANNELS 3 Zrotation Xrotation Yrotation
                JOINT lMid2
                {
                  OFFSET 3.10165 -0.590103 1.0647
                  CHANNELS 3 Zrotation Xrotation Yrotation
                  End Site
                  {
                    OFFSET 2.48547 -0.328903 0.83742
                  }
                }
              }
              JOINT lRing1
              {
                OFFSET 8.82822 0.546677 1.51678
                CHANNELS 3 Zrotation Xrotation Yrotation
                JOINT lRing2
                {
                  OFFSET 2.60934 -0.819778 -0.0198488
                  CHANNELS 3 Zrotation Xrotation Yrotation
                  End Site
                  {
                    OFFSET 2.33842 -0.294052 0.168128
                  }
                }
              }
              JOINT lPinky1
              {
                OFFSET 8.27202 -0.0477905 -0.4584
                CHANNELS 3 Zrotation Xrotation Yrotation
                JOINT lPinky2
                {
                  OFFSET 1.82734 -0.647385 -0.700984
                  CHANNELS 3 Zrotation Xrotation Yrotation
                  End Site
                  {
                    OFFSET 1.69225 -0.51767 -0.607171
                  }
                }
              }
            }
          }
        }
      }
    }
  }
  JOINT rButtock
  {
    OFFSET -8.77824 4.35084 1.2192
    CHANNELS 3 Zrotation Xrotation Yrotation
    JOINT rThigh
    {
      OFFSET 0 -1.70687 -2.19456
      CHANNELS 3 Zrotation Xrotation Yrotation
      JOINT rShin
      {
        OFFSET 0 -36.8199 0.73152
        CHANNELS 3 Zrotation Xrotation Yrotation
        JOINT rFoot
        {
          OFFSET 0.73152 -45.1104 -5.12064
          CHANNELS 3 Zrotation Xrotation Yrotation
          End Site
          {
            OFFSET -1.1221 -3.69964 12.103
          }
        }
      }
    }
  }
  JOINT lButtock
  {
    OFFSET 8.77824 4.35084 1.2192
    CHANNELS 3 Zrotation Xrotation Yrotation
    JOINT lThigh
    {
      OFFSET 0 -1.70687 -2.19456
      CHANNELS 3 Zrotation Xrotation Yrotation
      JOINT lShin
      {
        OFFSET 0 -36.8199 0.73152
        CHANNELS 3 Zrotation Xrotation Yrotation
        JOINT lFoot
        {
          OFFSET -0.73152 -45.1104 -5.12064
          CHANNELS 3 Zrotation Xrotation Yrotation
          End Site
          {
            OFFSET 1.1221 -3.69964 12.103
          }
        }
      }
    }
  }
}
MOTION
Frames:	9
Frame Time:	0.00833333
0.0 0.0 0.0 0.0 0.0 0.0 0.0 0.0 0.0 0.0 0.0 0.0 0.0 0.0 0.0 0.0 0.0 0.0 0.0 0.0 0.0 0.0 0.0 0.0 0.0 0.0 0.0 0.0 0.0 0.0 0.0 0.0 0.0 0.0 0.0 0.0 0.0 0.0 0.0 0.0 0.0 0.0 0.0 0.0 0.0 0.0 0.0 0.0 0.0 0.0 0.0 0.0 0.0 0.0 0.0 0.0 0.0 0.0 0.0 0.0 0.0 0.0 0.0 0.0 0.0 0.0 0.0 0.0 0.0 0.0 0.0 0.0 0.0 0.0 0.0 0.0 0.0 0.0 0.0 0.0 0.0 0.0 0.0 0.0 0.0 0.0 0.0 0.0 0.0 0.0 0.0 0.0 0.0 0.0 0.0 0.0 0.0 0.0 0.0 0.0 0.0 0.0 0.0 0.0 0.0 0.0 0.0 0.0 0.0 0.0 0.0 0.0 0.0 0.0 0.0 0.0 0.0 0.0 0.0 0.0 0.0 0.0 0.0 0.0 0.0 0.0 0.0 0.0 0.0 0.0 0.0 0.0
-82.0763 84.1215 -3.248 171.324263 85.573904 -179.182757 0.816547 -1.618537 8.927745 0.210259 1.31768 -8.017404 12.313064 11.935326 93.17152 -13.926121 12.908077 -94.08597 0.000347 0.0 0.000706 0.000347 0.0 0.000706 -155.809135 -5.555225 162.267441 1.741905 -0.331533 24.460927 7.031648 -22.903361 -58.69246 159.225112 -35.3647 139.183437 -169.145195 -6.826568 89.91653 -126.631873 11.385732 60.905619 -141.998455 -0.613717 116.932141 82.134466 -68.987457 32.016886 7.905234 -24.807433 -3.013046 -5.047344 21.303102 4.428227 -145.098488 -1.524369 -178.650203 -6.813264 -61.115746 -27.912942 12.631894 42.934183 10.5324 46.744852 83.448707 -10.076897 -3.192089 -25.838952 5.073432 30.938088 -77.865605 42.641969 -72.161303 -86.777938 -7.221757 -166.239482 -29.229926 -141.497954 178.519497 -16.064213 -89.475368 103.755978 16.869016 -44.269818 46.208297 39.652921 -36.318386 -179.709584 -33.383224 -109.171697 -6.908369 -21.624113 2.808963 7.13373 25.687511 -5.862498 0.021477 -1.805541 0.568427 -7.057645 29.71732 -4.676601 -12.636397 42.933562 -10.530156 -1.407599 -0.828574 0.565579 179.998321 75.75126 0.001732 -179.626208 68.947695 -0.0 -0.516342 17.602791 -160.510928 89.28477 -12.48078 -172.532918 0.000843 0.00117 -0.0 2.78916 -6.632291 -79.745413 -16.420908 -0.895861 -90.004867 148.251934 16.846338 -179.846442
-82.1833 84.1871 -3.6905 171.515451 85.656515 -179.020541 0.002982 -7.122722 127.781626 4.597429 -4.728911 -125.841755 -3.12606 25.278358 -136.149453 19.963169 23.940777 129.332471 -0.00247 -0.0 0.003364 -0.002107 0.0 -0.002348 -143.190824 39.035987 147.620584 96.291935 -51.352888 81.34334 169.265906 36.468449 99.09612 159.337885 -29.689674 141.814933 -169.319505 -7.000854 89.92237 -38.277611 -23.542216 6.998226 10.212258 -18.05056 -4.562425 -66.608159 49.028006 53.045835 -160.673805 -6.667945 143.24441 -167.441427 -17.359159 143.826254 -0.015285 -1.323176 -0.415704 -6.069306 62.274149 18.850483 44.715021 86.378988 -5.349645 -11.446509 -25.489998 -12.304438 -1.697518 -70.103132 16.505282 101.666703 -72.765585 103.116883 -7.19731 -0.060437 88.682354 -169.841332 -21.76039 -142.950622 159.654739 2.601335 -88.799396 -89.566562 -60.951802 -64.991229 173.762544 -52.872841 -119.825263 9.494614 36.261286 -4.266554 36.035575 51.722812 -29.833424 163.165727 -4.970315 -143.278766 0.000229 -0.018753 0.004238 155.416631 -1.210776 -171.994603 143.937394 8.264369 140.721644 -17.002073 43.780915 -6.048139 -179.997414 75.749343 -0.002282 178.669913 66.53111 -0.0 -6.294248 15.698405 -101.635363 86.272421 73.318899 5.324786 -0.0 0.001276 7.5e-05 2.516655 -11.21868 139.192453 3.232867 -8.663822 -125.442356 -144.692667 -20.663481 7.992907
-82.2996 84.2568 -4.1407 172.028387 85.771238 -178.46266 2.543284 -4.759224 0.316824 -1.498213 3.894292 2.378679 12.613115 16.402985 79.185587 -26.212957 8.108193 -82.866022 0.003916 0.0 0.002262 -0.001975 -0.0 0.001971 -130.42013 54.549243 134.28779 -124.270797 11.634604 124.012055 -114.169128 17.691539 -137.891673 7.894577 -3.213412 6.505961 116.309127 -50.009998 56.954345 -123.076456 30.512941 77.766919 -159.045988 -31.306306 122.65318 166.120051 -59.481895 103.15276 -125.643139 49.839949 115.274481 -88.543981 63.808561 80.44741 -75.673551 -72.115094 -92.829267 14.136857 26.712801 -1.1027 -24.989562 -37.659076 -24.060651 -147.022595 12.948992 -143.694456 28.70219 57.498743 -31.080136 128.194143 0.720127 -155.998002 174.998195 -0.691291 104.998729 7.893088 19.659419 -0.185141 7.758524 7.439146 -1.681743 -53.728048 -66.61511 7.659797 155.193921 -24.299722 -122.143169 -13.471031 -3.080738 10.241358 82.840402 61.111971 -74.532271 42.123623 58.442443 -36.386588 0.000505 0.063696 -0.021012 -9.350462 11.534813 -1.486433 12.376069 -24.157726 11.757968 22.424846 -40.181694 23.676365 0.000591 0.000809 -0.00076 -1.144767 -13.660443 -180.0 6.311969 -20.410812 74.34494 126.351775 67.167187 -33.3895 0.001569 0.000809 -0.0 4.442375 -12.326935 1.036605 7.937452 15.716348 77.425431 -10.900227 -32.282141 -87.770224
-82.3929 84.3069 -4.6011999999999995 172.483691 85.862266 -177.90626 1.688755 -6.157022 33.181036 2.300517 4.622554 -30.210611 12.179158 16.851186 69.353536 -29.238749 2.986899 -74.969772 -0.003166 -0.0 0.003051 -0.003166 -0.0 0.003051 0.482998 -3.000796 -0.653176 50.820794 2.358189 -30.57925 -34.003035 60.274251 119.816408 -4.71844 41.337629 5.093217 88.928397 -50.831117 37.599701 -33.242053 5.252394 -7.992921 -166.820052 -43.973993 122.062782 -84.20731 56.246406 68.462182 -36.03662 51.722955 29.832421 -171.96311 -31.377202 143.989909 -0.021681 -1.72603 -0.54258 -154.734791 5.934205 171.07437 -145.172789 12.067625 -141.823156 1.890898 -1.037673 -2.314724 155.515623 -3.589505 -161.854875 -78.226495 -62.637645 -103.828679 81.666057 -15.614322 -57.009715 -25.342975 -55.529237 -13.705399 2.607263 2.555036 -0.457675 14.83772 14.524613 -14.290881 140.763304 1.380008 -116.228042 80.369158 57.003431 -60.82688 -2.099585 -6.305543 1.080946 167.47144 -17.721366 -144.242788 145.118342 0.268269 179.211463 71.286419 -78.000108 92.778486 137.663612 -7.992742 134.927197 136.807685 -13.478503 133.631656 -179.990499 75.751886 -0.006501 176.717821 62.732622 -0.0 5.281924 15.731242 87.644568 0.812807 79.528622 -91.320206 179.995764 75.750914 0.004371 -168.576668 58.952198 -134.071653 -18.874992 -16.737854 -20.895781 60.872152 -7.036665 149.99924
-82.43430000000001 84.33279999999999 -5.0843 172.059141 86.001434 -178.28786 1.833712 -6.465454 32.388772 2.303315 5.012901 -29.38982 -3.42288 14.503458 -26.703701 13.815073 -21.123655 23.577052 0.003411 -0.0 -0.002516 0.003517 -0.0 -0.0024 3.191641 -25.838923 -5.074213 -118.47199 -17.552912 -131.589306 -134.099302 -65.830146 -51.630103 -5.381791 44.877732 5.927487 -178.926922 -16.453904 89.422331 -4.660126 -55.376173 2.065671 -152.315452 -18.948428 121.428961 -79.125395 57.457792 61.619919 -160.573928 -6.35926 143.198111 3.497707 -0.803851 0.256644 -145.122169 1.973748 -179.750265 6.134537 -29.874371 -13.906955 -132.779532 -17.595437 -130.285569 -147.564708 13.484229 -142.291253 155.460414 -3.22773 -161.777643 1.383349 -46.677529 -41.072435 129.524196 27.243649 -23.618428 -147.348319 -58.613346 -126.790071 78.030792 38.688965 -42.412637 -92.520052 -52.792033 -35.690279 145.338265 -6.264284 -118.678268 160.196205 -10.833888 -119.301723 167.29702 -27.767639 -145.260656 -3.085723 0.167402 -0.368882 71.923909 72.975086 -89.771268 159.827903 -1.691546 -176.458005 -0.321455 0.844325 -0.295857 -61.421328 85.765604 23.191667 -0.002174 -0.000378 -0.002173 -3.061623 -15.322059 113.074572 24.13482 -8.736664 91.344554 77.076949 -26.165715 167.833424 -0.002174 -0.000378 -0.002173 5.186815 -15.239991 1.466567 -0.209552 25.307655 -168.815771 162.03196 4.29615 177.103718
-82.4612 84.3537 -5.5672 171.69561 86.267859 -178.664386 2.184617 -6.075047 19.821914 0.724803 5.309355 -17.009595 -2.947048 13.349604 -23.84425 11.396739 -21.365768 20.500755 0.000733 0.0 0.000278 0.000733 0.0 0.000278 -6.042788 25.599188 7.233943 -108.193918 -1.249814 -172.954628 -91.827731 15.165486 -51.908444 22.1764 -31.872371 19.349831 -78.031219 38.689854 42.412039 -2.306165 -12.728012 25.769777 -156.542822 -26.787752 122.381477 -158.578672 -12.01518 119.560546 -125.643816 49.839272 115.272949 -7.269424 26.164718 6.334132 -70.380444 -72.130013 -87.280068 13.865448 29.73895 -0.477614 -25.535717 -38.08835 -24.597475 -4.653905 -17.955328 -7.220545 155.613931 -4.236413 -161.991039 -76.771389 -62.757409 -105.703997 -2.176993 -6.970859 -90.937834 8.48405 19.649606 -0.144414 103.199664 36.331214 -60.111343 147.847276 -24.183461 -77.294565 140.71993 1.447014 -116.204061 80.372981 57.000655 -60.824544 153.321736 13.629236 -138.862699 163.705546 -6.255633 -143.127567 -0.000147 -0.018602 0.005087 -2.479724 47.163179 -9.713223 157.330063 57.245663 150.514386 147.989457 10.794058 141.8135 -7.6e-05 0.000931 -3.8e-05 -2.304445 -13.907985 -0.598649 -7.575168 16.734885 -70.91081 -143.456901 -58.331799 -34.416346 -5.9e-05 -0.000884 -0.0 4.970267 -15.069173 -0.0 -5.647579 17.865711 -88.57814 31.045131 -36.400027 106.970779
-82.5106 84.3627 -6.0442 171.349241 86.544357 -179.020723 5.095298 -8.671307 -106.672639 -6.529142 -6.21161 109.087391 -7.199035 22.71426 -91.458291 33.331316 5.800135 85.157855 0.003492 0.0 0.004611 -0.002414 0.0 -0.000935 -142.973598 39.431498 147.389772 59.834784 -23.411328 73.452968 -8.869899 -5.419143 85.355486 -7.18668 50.609475 6.775585 -12.305879 11.514822 3.094685 -14.398771 12.55502 18.783438 -4.706189 7.224097 2.855053 -175.913864 -31.261605 107.398286 -159.364052 -2.685909 142.596678 -85.904114 63.860012 77.766048 0.006025 1.772303 0.556887 -15.758305 69.584422 28.522813 -133.526469 -16.273303 -131.002429 -75.849136 -53.083049 -76.028538 159.221893 -48.725058 -170.567021 35.001842 -6.000077 3.994635 -23.552119 30.657433 134.333758 -177.471519 -2.037692 -144.252528 168.137712 -5.814934 -89.870354 44.10144 -18.436235 -9.484536 -29.117019 -49.29151 4.256948 62.399445 51.121473 -51.394683 148.32016 24.247803 -135.13139 4.989274 21.273874 -4.789107 145.121973 1.97405 179.74965 -11.431299 58.802543 1.651378 103.17524 -45.37442 101.348441 152.033832 29.691955 145.889435 179.997606 75.752051 0.002192 173.377874 59.713562 142.610879 7.397547 -15.976994 -68.238442 -164.262713 -2.894129 95.910648 179.988696 75.749263 0.009301 -170.757269 58.647474 -167.390678 -14.938918 -18.266136 -102.472908 -138.506277 -59.061191 128.293104
-82.61269999999999 84.3646 -6.539300000000001 170.542914 86.726818 -179.759067 0.293776 -7.197474 76.058552 6.62958 0.994481 -73.896411 13.554113 21.462621 111.805526 -25.260639 26.352979 -112.236643 0.004796 0.0 0.000695 -0.000932 -0.0 0.00087 -14.543025 43.661402 16.41301 -109.29516 -4.208324 170.247032 -167.524614 -32.747368 -92.093557 -9.077997 55.170942 7.636234 -93.744623 37.963339 53.547682 -26.132062 -8.515881 34.059935 -0.133208 0.212903 0.074911 -175.22949 -31.484063 107.356815 -160.673489 -6.667993 143.244433 -3.345123 17.311838 3.700541 -70.379906 -72.13006 -87.280044 13.863828 29.739037 -0.475719 4.595184 13.360055 4.15609 1.383445 -2.287634 -0.738947 157.849493 -22.658184 -165.566709 171.878323 60.71992 -135.989407 115.336085 53.77629 147.500419 -0.986033 -9.487247 0.742701 93.743425 37.964221 -53.548845 -172.317949 -43.554393 -74.680857 -5.92109 -10.174599 2.969204 -97.163591 -61.464194 -42.942974 125.643304 49.839839 -115.274208 -3.336182 0.212431 -0.271527 69.295723 72.946936 -87.016747 158.706434 -28.261289 179.90948 118.626577 -35.4511 116.546971 -11.489952 24.611604 -4.265203 179.998817 75.749837 0.001221 175.649768 61.260756 -40.967967 -14.174746 5.35109 9.916262 -117.3867 -32.348347 1.747244 -179.957244 75.749834 -0.032955 -171.370577 59.050635 -167.816196 -3.110159 -13.127694 135.610747 28.961471 1.508362 20.716281
